<svg width="204" height="168" viewBox="0 0 204 168" fill="none" xmlns="http://www.w3.org/2000/svg">
<path d="M88.0273 89.0465C98.9012 134.958 137.161 132.945 137.161 85.4219" stroke="black" stroke-width="3"/>
<path d="M88.4316 89.4481C104.541 98.711 120.651 98.3082 137.163 86.6289" stroke="black" stroke-width="3"/>
<path d="M97.6942 109.586C103.751 105.622 107.441 105.522 114.609 109.586C122.114 104.15 125.788 105.002 131.927 109.586M78.7656 89.8515C85.7776 90.9848 88.464 89.9772 89.6395 83.4077" stroke="black" stroke-width="3"/>
<path d="M132.33 79.3804C135.284 86.2729 138.159 87.1633 144.815 85.0187" stroke="black" stroke-width="3"/>
<path d="M106.154 80.9912H108.168" stroke="black" stroke-width="3"/>
<path fill-rule="evenodd" clip-rule="evenodd" d="M38.0919 151.067C115.014 181.675 169.787 161.135 187.507 130.125C187.833 125.704 187.967 121.408 187.92 117.237C187.75 102.279 185.257 88.9347 181.003 77.2517C180.969 77.1573 180.934 77.063 180.9 76.9689C151.061 -4.25638 35.9941 -4.80779 26.8153 91.0594C17.9551 89.0458 11.1086 91.8649 5.47026 101.128C-0.168039 110.391 1.44292 144.623 12.3168 150.262C23.1906 155.9 38.0919 151.067 38.0919 151.067ZM54.2013 112.807C34.87 5.6794 152.872 -3.18079 173.814 100.322C166.967 126.097 92.0585 140.193 54.2013 112.807Z" fill="#F9F8E6"/>
<path d="M202.005 117.237C204.422 93.8786 197.007 73.7418 180.898 76.9637L180.9 76.9689C180.934 77.063 180.969 77.1573 181.003 77.2517C185.257 88.9347 187.75 102.279 187.92 117.237C188.682 127.314 186.299 129.319 192.742 129.319C199.186 129.319 202.005 117.237 202.005 117.237Z" fill="#F9F8E6"/>
<path d="M187.92 117.237C187.967 121.408 187.833 125.704 187.507 130.125C169.787 161.136 115.014 181.675 38.0919 151.067C38.0919 151.067 23.1906 155.9 12.3168 150.262C1.44292 144.623 -0.168039 110.391 5.47026 101.128C11.1086 91.8649 17.9551 89.0458 26.8153 91.0594C35.9941 -4.80779 151.061 -4.25638 180.9 76.9689M187.92 117.237C188.682 127.314 186.299 129.319 192.742 129.319C199.186 129.319 202.005 117.237 202.005 117.237C204.422 93.8786 197.007 73.7418 180.898 76.9637L180.9 76.9689M187.92 117.237C187.75 102.279 185.257 88.9347 181.003 77.2517M181.003 77.2517C180.969 77.1573 180.934 77.063 180.9 76.9689M181.003 77.2517L180.9 76.9689M54.2013 112.807C34.87 5.6794 152.872 -3.18079 173.814 100.322C166.967 126.097 92.0585 140.193 54.2013 112.807Z" stroke="black" stroke-width="3"/>
<path d="M36.0781 100.323C44.9383 107.169 46.1465 130.528 39.7027 142.61" stroke="black" stroke-width="3"/>
<path d="M115.014 80.186H117.027" stroke="black" stroke-width="3"/>
<path d="M68.3491 83.2064C52.587 32.8643 96.7206 24.8096 94.9193 81.1927" stroke="black" stroke-width="3"/>
<path d="M71.9512 44.9468C80.9086 50.8571 83.8448 57.7893 84.1104 78.7766" stroke="black" stroke-width="3"/>
<path d="M68.8028 47.7656L71.0545 45.752L77.8096 51.3903L81.8627 62.6669L83.2138 77.1654L75.1076 78.3736L68.8028 81.5955L67.0014 73.5407L65.6504 59.0422L68.8028 47.7656Z" fill="black" stroke="black" stroke-width="3"/>
<path d="M83.6606 50.9873L76.4551 57.0283L85.0116 54.6119" stroke="#F9F8E6" stroke-width="3"/>
<path d="M51.2363 26.4205C64.3334 6.76569 77.3562 1.45088 87.2638 12.7275" stroke="black" stroke-width="3"/>
<path d="M64.2949 85.6229C77.4786 76.7524 85.1679 76.3226 99.4217 83.6092" stroke="black" stroke-width="3"/>
<path d="M123.097 78.4973C109.701 30.7326 147.211 23.0902 145.68 76.5868" stroke="black" stroke-width="3"/>
<path d="M126.162 42.1963C133.775 47.804 136.271 54.3813 136.496 74.2942" stroke="black" stroke-width="3"/>
<path d="M123.48 44.8705L125.394 42.96L131.135 48.3096L134.58 59.0089L135.728 72.7651L128.839 73.9115L123.48 76.9684L121.949 69.3261L120.801 55.5698L123.48 44.8705Z" fill="black" stroke="black" stroke-width="3"/>
<path d="M136.112 47.9277L129.988 53.6595L137.261 51.3668" stroke="#F9F8E6" stroke-width="3"/>
<path d="M143.646 17.3616C132.515 -1.28695 127.461 -1.4892 119.04 9.2101" stroke="black" stroke-width="3"/>
<path d="M119.652 80.7897C130.857 72.3733 137.393 71.9655 149.507 78.8791" stroke="black" stroke-width="3"/>
</svg>
