<svg width="238" height="72" viewBox="0 0 238 72" fill="none" xmlns="http://www.w3.org/2000/svg">
<path d="M36 0C36 9.54779 32.2072 18.7045 25.4558 25.4558C18.7045 32.2072 9.54779 36 0 36C9.54779 36 18.7045 39.7928 25.4558 46.5442C32.2072 53.2955 36 62.4522 36 72C36 62.4522 39.7928 53.2955 46.5442 46.5442C53.2955 39.7928 62.4522 36 72 36C62.4522 36 53.2955 32.2072 46.5442 25.4558C39.7928 18.7045 36 9.54779 36 0Z" fill="black"/>
<path d="M90.72 24.72L90.496 19.792L102.24 7.6H106.912L97.152 17.968L94.848 20.496L90.72 24.72ZM87.008 30V7.6H91.168V30H87.008ZM102.624 30L94.048 19.792L96.8 16.752L107.488 30H102.624ZM114.959 30L107.535 7.6H111.855L118.479 27.856H116.335L123.215 7.6H127.055L133.743 27.856H131.663L138.447 7.6H142.415L134.991 30H130.575L124.463 11.728H125.615L119.407 30H114.959ZM142.557 30L152.637 7.6H156.733L166.845 30H162.493L153.821 9.808H155.485L146.845 30H142.557ZM147.197 24.816L148.317 21.552H160.413L161.533 24.816H147.197ZM168.638 30V27.216L183.102 9.552L183.582 11.12H168.862V7.6H187.326V10.384L172.862 28.048L172.35 26.48H187.742V30H168.638ZM189.025 30L199.105 7.6H203.201L213.313 30H208.961L200.289 9.808H201.953L193.313 30H189.025ZM193.665 24.816L194.785 21.552H206.881L208.001 24.816H193.665ZM216.802 30V7.6H226.018C228.002 7.6 229.698 7.92 231.106 8.56C232.535 9.2 233.634 10.1173 234.402 11.312C235.17 12.5067 235.554 13.9253 235.554 15.568C235.554 17.2107 235.17 18.6293 234.402 19.824C233.634 20.9973 232.535 21.904 231.106 22.544C229.698 23.1627 228.002 23.472 226.018 23.472H219.106L220.962 21.584V30H216.802ZM231.458 30L225.794 21.872H230.242L235.938 30H231.458ZM220.962 22.032L219.106 20.048H225.826C227.66 20.048 229.036 19.6533 229.954 18.864C230.892 18.0747 231.362 16.976 231.362 15.568C231.362 14.1387 230.892 13.04 229.954 12.272C229.036 11.504 227.66 11.12 225.826 11.12H219.106L220.962 9.072V22.032ZM87.008 64V41.6H90.432L100.224 57.952H98.432L108.064 41.6H111.488L111.52 64H107.584L107.552 47.776H108.384L100.192 61.44H98.336L90.016 47.776H90.976V64H87.008ZM122.05 50.912H133.187V54.336H122.05V50.912ZM122.37 60.512H135.01V64H118.21V41.6H134.562V45.088H122.37V60.512ZM140.288 64V41.6H150.08C152.512 41.6 154.645 42.0693 156.48 43.008C158.315 43.9467 159.744 45.248 160.768 46.912C161.792 48.576 162.304 50.5387 162.304 52.8C162.304 55.04 161.792 57.0027 160.768 58.688C159.744 60.352 158.315 61.6533 156.48 62.592C154.645 63.5307 152.512 64 150.08 64H140.288ZM144.448 60.48H149.888C151.573 60.48 153.024 60.16 154.24 59.52C155.477 58.88 156.427 57.984 157.088 56.832C157.771 55.68 158.112 54.336 158.112 52.8C158.112 51.2427 157.771 49.8987 157.088 48.768C156.427 47.616 155.477 46.72 154.24 46.08C153.024 45.44 151.573 45.12 149.888 45.12H144.448V60.48ZM167.365 64V41.6H171.525V64H167.365ZM175.056 64L185.136 41.6H189.232L199.344 64H194.992L186.32 43.808H187.984L179.344 64H175.056ZM179.696 58.816L180.816 55.552H192.912L194.032 58.816H179.696Z" fill="black"/>
</svg>
